<svg xmlns="http://www.w3.org/2000/svg" xmlns:xlink="http://www.w3.org/1999/xlink" width="379.956" height="311.721" viewBox="0 0 379.956 311.721">
  <defs>
    <filter id="Icon_ionic-ios-globe" x="32.064" y="0" width="347.892" height="311.721" filterUnits="userSpaceOnUse">
      <feOffset dx="5" dy="5" input="SourceAlpha"/>
      <feGaussianBlur stdDeviation="3" result="blur"/>
      <feFlood flood-opacity="0.161"/>
      <feComposite operator="in" in2="blur"/>
      <feComposite in="SourceGraphic"/>
    </filter>
  </defs>
  <g id="Logo" transform="translate(0 4)" style="isolation: isolate">
    <g id="Group_24" data-name="Group 24" transform="translate(-1)">
      <g transform="matrix(1, 0, 0, 1, 1, -4)" filter="url(#Icon_ionic-ios-globe)">
        <path id="Icon_ionic-ios-globe-2" data-name="Icon ionic-ios-globe" d="M168.281,3.375h-.555C123.8,3.516,82.578,18.838,51.5,46.515c-31,27.748-48.124,64.534-48.124,103.72s17.125,75.972,48.2,103.72c31,27.678,72.305,43,116.227,43.14h.555c90.936,0,164.906-65.875,164.906-146.86S259.218,3.375,168.281,3.375ZM311.147,140.351H249.624a249.363,249.363,0,0,0-7.77-53.8,258.478,258.478,0,0,0,39.4-14.827C298.7,91.632,309.007,115.215,311.147,140.351Zm-153.965,0h-49a225.052,225.052,0,0,1,6.977-48.789,269.255,269.255,0,0,0,42.019,5.013Zm0,19.77v43.705a270.4,270.4,0,0,0-42.019,5.013,225.028,225.028,0,0,1-6.977-48.718Zm22.2,0h48.6A223.738,223.738,0,0,1,221,208.768a264.181,264.181,0,0,0-41.623-4.942Zm0-19.77V96.575A270.418,270.418,0,0,0,221,91.632a224.4,224.4,0,0,1,6.977,48.718Zm86.734-83.244A236.4,236.4,0,0,1,235.988,68.05c-5.629-15.11-12.764-28.172-21.01-38.48A147.706,147.706,0,0,1,266.115,57.106ZM215.058,73.134a249.1,249.1,0,0,1-35.677,4.236V25.545C192.859,32.041,206.019,49.481,215.058,73.134ZM157.182,25.263V77.3a244.789,244.789,0,0,1-36.073-4.307C130.305,49.128,143.625,31.688,157.182,25.263Zm-36.153,4.519c-8.166,10.238-15.222,23.229-20.851,38.2A241.587,241.587,0,0,1,70.447,57.106,145.437,145.437,0,0,1,121.029,29.782ZM55.3,71.792A253.342,253.342,0,0,0,94.311,86.478a239.326,239.326,0,0,0-7.77,53.8H25.495C27.556,115.285,37.863,91.7,55.3,71.792ZM25.415,160.12H86.462a248.725,248.725,0,0,0,7.77,53.8,268.807,268.807,0,0,0-39.007,14.686C37.863,208.768,27.556,185.185,25.415,160.12Zm44.953,83.244a238.073,238.073,0,0,1,29.81-10.873c5.629,15.039,12.685,27.96,20.851,38.268A149.044,149.044,0,0,1,70.368,243.365Zm50.74-15.957a246.072,246.072,0,0,1,36.073-4.307v52.107C143.545,268.783,130.305,251.273,121.109,227.408Zm58.272,47.518v-51.9a249.1,249.1,0,0,1,35.677,4.236C206.019,250.99,192.859,268.43,179.381,274.926Zm35.677-4.025c8.245-10.308,15.381-23.371,21.01-38.48a232.38,232.38,0,0,1,30.127,11.015A149.455,149.455,0,0,1,215.058,270.9Zm66.2-42.222a258.468,258.468,0,0,0-39.4-14.827,248.071,248.071,0,0,0,7.77-53.731h61.523C309.007,185.185,298.779,208.768,281.258,228.679Z" transform="translate(32.69 0.62)"/>
      </g>
      <text id="UFM" transform="translate(183 245)" fill="#3f9b3c" font-size="177" font-family="SegoeUI-SemiboldItalic, Segoe UI" font-weight="600" font-style="italic" opacity="0.77"><tspan x="-181.84" y="0">UFM</tspan></text>
    </g>
  </g>
</svg>
